<mxfile host="app.diagrams.net" modified="2023-11-29T07:01:43.739Z" agent="Mozilla/5.0 (Windows NT 10.0; Win64; x64) AppleWebKit/537.36 (KHTML, like Gecko) Chrome/119.0.0.0 Safari/537.36" etag="UYhbhv0WG-9p9LTVbgZU" version="22.1.4" type="gitlab">
  <diagram name="Page-1" id="03018318-947c-dd8e-b7a3-06fadd420f32">
    <mxGraphModel dx="1985" dy="929" grid="1" gridSize="10" guides="1" tooltips="1" connect="1" arrows="1" fold="1" page="1" pageScale="1" pageWidth="1100" pageHeight="850" background="none" math="0" shadow="0">
      <root>
        <mxCell id="0" />
        <mxCell id="1" parent="0" />
        <mxCell id="677b7b8949515195-1" value="" style="whiteSpace=wrap;html=1;rounded=0;shadow=0;labelBackgroundColor=none;strokeColor=#000000;strokeWidth=1;fillColor=none;fontFamily=Verdana;fontSize=12;fontColor=#000000;align=center;comic=1;" parent="1" vertex="1">
          <mxGeometry x="20" y="20" width="1060" height="810" as="geometry" />
        </mxCell>
        <mxCell id="KvFXjssFKaqYMCo_R6gm-1" value="" style="whiteSpace=wrap;html=1;aspect=fixed;" vertex="1" parent="1">
          <mxGeometry x="350" y="181.5" width="370" height="370" as="geometry" />
        </mxCell>
        <mxCell id="KvFXjssFKaqYMCo_R6gm-2" value="&lt;font style=&quot;font-size: 36px;&quot;&gt;Login&lt;/font&gt;" style="text;html=1;strokeColor=none;fillColor=none;align=center;verticalAlign=middle;whiteSpace=wrap;rounded=0;" vertex="1" parent="1">
          <mxGeometry x="480" y="210" width="90" height="50" as="geometry" />
        </mxCell>
        <mxCell id="KvFXjssFKaqYMCo_R6gm-5" value="" style="group" vertex="1" connectable="0" parent="1">
          <mxGeometry x="400" y="290" width="290" height="61.5" as="geometry" />
        </mxCell>
        <mxCell id="KvFXjssFKaqYMCo_R6gm-3" value="Email" style="fillColor=none;strokeColor=none;html=1;fontSize=11;fontStyle=0;align=left;fontColor=#596780;fontStyle=1;fontSize=11" vertex="1" parent="KvFXjssFKaqYMCo_R6gm-5">
          <mxGeometry x="5" width="280" height="20" as="geometry" />
        </mxCell>
        <mxCell id="KvFXjssFKaqYMCo_R6gm-4" value="tom@gmail.com" style="rounded=1;arcSize=9;align=left;spacingLeft=5;strokeColor=#4C9AFF;html=1;strokeWidth=2;fontSize=12" vertex="1" parent="KvFXjssFKaqYMCo_R6gm-5">
          <mxGeometry y="28.5" width="290" height="33" as="geometry" />
        </mxCell>
        <mxCell id="KvFXjssFKaqYMCo_R6gm-6" value="" style="group" vertex="1" connectable="0" parent="1">
          <mxGeometry x="400" y="368.5" width="290" height="61.5" as="geometry" />
        </mxCell>
        <mxCell id="KvFXjssFKaqYMCo_R6gm-7" value="Password" style="fillColor=none;strokeColor=none;html=1;fontSize=11;fontStyle=0;align=left;fontColor=#596780;fontStyle=1;fontSize=11" vertex="1" parent="KvFXjssFKaqYMCo_R6gm-6">
          <mxGeometry x="5" width="280" height="20" as="geometry" />
        </mxCell>
        <mxCell id="KvFXjssFKaqYMCo_R6gm-8" value="*********" style="rounded=1;arcSize=9;align=left;spacingLeft=5;strokeColor=#4C9AFF;html=1;strokeWidth=2;fontSize=12" vertex="1" parent="KvFXjssFKaqYMCo_R6gm-6">
          <mxGeometry y="28.5" width="290" height="33" as="geometry" />
        </mxCell>
        <mxCell id="KvFXjssFKaqYMCo_R6gm-9" value="&lt;font style=&quot;font-size: 18px;&quot;&gt;Lets go!&lt;/font&gt;" style="rounded=1;fillColor=#0057D8;strokeColor=none;html=1;whiteSpace=wrap;fontColor=#ffffff;align=center;verticalAlign=middle;fontStyle=0;fontSize=12;sketch=0;" vertex="1" parent="1">
          <mxGeometry x="480" y="470" width="110" height="33" as="geometry" />
        </mxCell>
      </root>
    </mxGraphModel>
  </diagram>
</mxfile>
